<svg xmlns="http://www.w3.org/2000/svg" viewBox="0 0 24 24" fill="none" stroke="currentColor" stroke-width="2" stroke-linecap="round" stroke-linejoin="round">
  <!-- Stethoscope icon representing medical care -->
  <path d="M11 2a2 2 0 0 1 2 2v5.5a0.5 0.5 0 0 0 0.5 0.5h0A1.5 1.5 0 0 1 15 11.5V18a3 3 0 0 1-3 3 3 3 0 0 1-3-3v-6.5A1.5 1.5 0 0 1 10.5 10h0a0.5 0.5 0 0 0 0.5-0.5V4a2 2 0 0 1 2-2z"/>
  <path d="M9 10h6"/>
  <circle cx="20" cy="16" r="2"/>
  <path d="m18 16-6-6v-2"/>
  <circle cx="4" cy="16" r="2"/>
  <path d="m6 16 6-6v-2"/>
  <!-- Additional medical cross element -->
  <path d="M12 6v4M10 8h4" stroke-width="1.5"/>
</svg>
